<mxfile host="app.diagrams.net" agent="Mozilla/5.0 (X11; Ubuntu; Linux x86_64; rv:133.0) Gecko/20100101 Firefox/133.0" version="26.0.5">
  <diagram name="Page-1" id="-Lofyljg84Q4TSNu2HTE">
    <mxGraphModel dx="2660" dy="1030" grid="1" gridSize="10" guides="1" tooltips="1" connect="1" arrows="1" fold="1" page="1" pageScale="1" pageWidth="1654" pageHeight="2336" math="0" shadow="0">
      <root>
        <mxCell id="0" />
        <mxCell id="1" parent="0" />
        <mxCell id="M9vnRnVPpcQp0MmXC5jN-19" value="orders" style="swimlane;whiteSpace=wrap;html=1;" parent="1" vertex="1">
          <mxGeometry x="-1120" y="10" width="430" height="220" as="geometry" />
        </mxCell>
        <mxCell id="M9vnRnVPpcQp0MmXC5jN-25" value="order_items" style="swimlane;whiteSpace=wrap;html=1;" parent="1" vertex="1">
          <mxGeometry x="-1062.5" y="340" width="310" height="200" as="geometry" />
        </mxCell>
        <mxCell id="M9vnRnVPpcQp0MmXC5jN-26" value="&lt;li style=&quot;white-space: nowrap; line-height: 210%;&quot;&gt;&lt;code style=&quot;background-color: initial; white-space: normal;&quot;&gt;order_item_id&lt;/code&gt;&lt;span style=&quot;background-color: initial; white-space: normal;&quot;&gt; (Primary Key)&lt;/span&gt;&lt;br&gt;&lt;/li&gt;&lt;li style=&quot;line-height: 210%;&quot;&gt;&lt;code&gt;order_id&lt;/code&gt; (Foreign Key to &lt;code&gt;orders&lt;/code&gt;)&lt;/li&gt;&lt;li style=&quot;line-height: 210%;&quot;&gt;&lt;code&gt;menu_item_id&lt;/code&gt; (Foreign Key to &lt;code&gt;menu_items&lt;/code&gt;)&lt;/li&gt;&lt;li style=&quot;line-height: 210%;&quot;&gt;&lt;code&gt;quantity&lt;/code&gt; (Integer)&lt;/li&gt;&lt;li style=&quot;line-height: 210%;&quot;&gt;&lt;code&gt;price_at_time&lt;/code&gt; (Numeric).&lt;/li&gt;&lt;li style=&quot;line-height: 210%;&quot;&gt;&lt;code&gt;customizations&lt;/code&gt; (JSONB)&amp;nbsp;&lt;/li&gt;" style="text;html=1;align=left;verticalAlign=middle;whiteSpace=wrap;rounded=0;" parent="M9vnRnVPpcQp0MmXC5jN-25" vertex="1">
          <mxGeometry x="10" y="30" width="285" height="162.5" as="geometry" />
        </mxCell>
        <mxCell id="M9vnRnVPpcQp0MmXC5jN-27" value="menu_items" style="swimlane;whiteSpace=wrap;html=1;" parent="1" vertex="1">
          <mxGeometry x="-1092.5" y="640" width="370" height="190" as="geometry" />
        </mxCell>
        <mxCell id="M9vnRnVPpcQp0MmXC5jN-28" value="&lt;li style=&quot;white-space: nowrap; line-height: 210%;&quot;&gt;&lt;code style=&quot;background-color: initial; white-space: normal;&quot;&gt;menu_item_id&lt;/code&gt;&lt;span style=&quot;background-color: initial; white-space: normal;&quot;&gt; (Primary Key)&lt;/span&gt;&lt;br&gt;&lt;/li&gt;&lt;li style=&quot;line-height: 210%;&quot;&gt;&lt;code&gt;name&lt;/code&gt; (Text)&amp;nbsp;&lt;/li&gt;&lt;li style=&quot;line-height: 210%;&quot;&gt;&lt;code style=&quot;background-color: initial;&quot;&gt;category&lt;/code&gt;&lt;span style=&quot;background-color: initial;&quot;&gt; (ENUM: &#39;coffee&#39;, &#39;tea&#39;, &#39;snacks&#39;, &#39;pastries&#39;, drinks&#39;)&lt;/span&gt;&lt;/li&gt;&lt;li style=&quot;line-height: 210%;&quot;&gt;&lt;code&gt;price&lt;/code&gt; (Numeric)&lt;span style=&quot;background-color: initial;&quot;&gt;&amp;nbsp;&lt;/span&gt;&lt;/li&gt;&lt;li style=&quot;line-height: 210%;&quot;&gt;&lt;code&gt;available&lt;/code&gt; (Boolean)&amp;nbsp;&lt;/li&gt;&lt;li style=&quot;line-height: 210%;&quot;&gt;&lt;code&gt;tags&lt;/code&gt; (ARRAY of Text) -&amp;nbsp;Tags like &#39;vegan&#39;, &#39;gluten-free&#39;, &#39;hot&#39;&lt;/li&gt;" style="text;html=1;align=left;verticalAlign=middle;whiteSpace=wrap;rounded=0;" parent="M9vnRnVPpcQp0MmXC5jN-27" vertex="1">
          <mxGeometry x="13.75" y="28.75" width="342.5" height="142.5" as="geometry" />
        </mxCell>
        <mxCell id="M9vnRnVPpcQp0MmXC5jN-29" value="menu_item_ingredients" style="swimlane;whiteSpace=wrap;html=1;" parent="1" vertex="1">
          <mxGeometry x="-1560" y="360" width="320" height="160" as="geometry" />
        </mxCell>
        <mxCell id="M9vnRnVPpcQp0MmXC5jN-30" value="&lt;li style=&quot;white-space: nowrap; line-height: 210%;&quot;&gt;&lt;code style=&quot;background-color: initial; white-space: normal;&quot;&gt;menu_item_id&lt;/code&gt;&lt;span style=&quot;background-color: initial; white-space: normal;&quot;&gt; (Foreign Key to &lt;/span&gt;&lt;code style=&quot;background-color: initial; white-space: normal;&quot;&gt;menu_items&lt;/code&gt;&lt;span style=&quot;background-color: initial; white-space: normal;&quot;&gt;)&lt;/span&gt;&lt;br&gt;&lt;/li&gt;&lt;li style=&quot;line-height: 210%;&quot;&gt;&lt;code&gt;ingredient_id&lt;/code&gt; (Foreign Key to &lt;code&gt;ingredients&lt;/code&gt;)&lt;/li&gt;&lt;li style=&quot;line-height: 210%;&quot;&gt;&lt;code&gt;quantity&lt;/code&gt; (Numeric)&lt;/li&gt;&lt;li style=&quot;line-height: 210%;&quot;&gt;&lt;code&gt;unit&lt;/code&gt; (Text)&lt;/li&gt;" style="text;html=1;align=left;verticalAlign=middle;whiteSpace=wrap;rounded=0;" parent="M9vnRnVPpcQp0MmXC5jN-29" vertex="1">
          <mxGeometry x="10" y="15" width="300" height="145" as="geometry" />
        </mxCell>
        <mxCell id="M9vnRnVPpcQp0MmXC5jN-31" value="ingredients" style="swimlane;whiteSpace=wrap;html=1;" parent="1" vertex="1">
          <mxGeometry x="-1620" y="640" width="420" height="180" as="geometry" />
        </mxCell>
        <mxCell id="M9vnRnVPpcQp0MmXC5jN-32" value="&lt;li style=&quot;white-space: nowrap; line-height: 210%;&quot;&gt;&lt;code style=&quot;background-color: initial; white-space: normal;&quot;&gt;ingredient_id&lt;/code&gt;&lt;span style=&quot;background-color: initial; white-space: normal;&quot;&gt; (Primary Key)&lt;/span&gt;&lt;br&gt;&lt;/li&gt;&lt;li style=&quot;line-height: 210%;&quot;&gt;&lt;code&gt;name&lt;/code&gt; (Text) - Ingredient name (e.g., &quot;Sugar&quot;, &quot;Milk&quot;).&lt;/li&gt;&lt;li style=&quot;line-height: 210%;&quot;&gt;&lt;code&gt;stock_level&lt;/code&gt; (Numeric) - Current stock quantity.&lt;/li&gt;&lt;li style=&quot;line-height: 210%;&quot;&gt;&lt;code&gt;unit_type&lt;/code&gt; (Text) - Unit of measurement (e.g., &#39;kg&#39;, &#39;liter&#39;).&lt;/li&gt;" style="text;html=1;align=left;verticalAlign=middle;whiteSpace=wrap;rounded=0;" parent="M9vnRnVPpcQp0MmXC5jN-31" vertex="1">
          <mxGeometry x="14" y="20" width="392" height="162.5" as="geometry" />
        </mxCell>
        <mxCell id="M9vnRnVPpcQp0MmXC5jN-33" value="inventory" style="swimlane;whiteSpace=wrap;html=1;" parent="1" vertex="1">
          <mxGeometry x="-450" y="660" width="310" height="150" as="geometry" />
        </mxCell>
        <mxCell id="M9vnRnVPpcQp0MmXC5jN-34" value="&lt;li style=&quot;white-space: nowrap; line-height: 210%;&quot;&gt;&lt;code style=&quot;background-color: initial; white-space: normal;&quot;&gt;inventory_id&lt;/code&gt;&lt;span style=&quot;background-color: initial; white-space: normal;&quot;&gt; (Primary Key)&lt;/span&gt;&lt;br&gt;&lt;/li&gt;&lt;li style=&quot;line-height: 210%;&quot;&gt;&lt;code&gt;ingredient_id&lt;/code&gt; (Foreign Key to &lt;code&gt;ingredients&lt;/code&gt;)&lt;/li&gt;&lt;li style=&quot;line-height: 210%;&quot;&gt;&lt;code&gt;quantity_in_stock&lt;/code&gt; (Numeric)&amp;nbsp;&lt;/li&gt;&lt;li style=&quot;line-height: 210%;&quot;&gt;&lt;code style=&quot;background-color: initial;&quot;&gt;last_updated&lt;/code&gt;&lt;span style=&quot;background-color: initial;&quot;&gt; (Timestamp with time zone)&lt;/span&gt;&lt;/li&gt;" style="text;html=1;align=left;verticalAlign=middle;whiteSpace=wrap;rounded=0;" parent="M9vnRnVPpcQp0MmXC5jN-33" vertex="1">
          <mxGeometry x="10" y="25" width="303.13" height="120" as="geometry" />
        </mxCell>
        <mxCell id="M9vnRnVPpcQp0MmXC5jN-35" value="order_status_history" style="swimlane;whiteSpace=wrap;html=1;" parent="1" vertex="1">
          <mxGeometry x="-1600" y="45" width="380" height="150" as="geometry" />
        </mxCell>
        <mxCell id="M9vnRnVPpcQp0MmXC5jN-36" value="&lt;li style=&quot;white-space: nowrap; line-height: 210%;&quot;&gt;&lt;code style=&quot;background-color: initial; white-space: normal;&quot;&gt;status_id&lt;/code&gt;&lt;span style=&quot;background-color: initial; white-space: normal;&quot;&gt; (Primary Key)&lt;/span&gt;&lt;br&gt;&lt;/li&gt;&lt;li style=&quot;line-height: 210%;&quot;&gt;&lt;code&gt;order_id&lt;/code&gt; (Foreign Key to &lt;code&gt;orders&lt;/code&gt;)&lt;/li&gt;&lt;li style=&quot;line-height: 210%;&quot;&gt;&lt;code&gt;status&lt;/code&gt; (ENUM: &#39;pending&#39;, &#39;preparing&#39;, &#39;completed&#39;, &#39;cancelled&#39;)&lt;/li&gt;&lt;li style=&quot;line-height: 210%;&quot;&gt;&lt;code&gt;timestamp&lt;/code&gt; (Timestamp with time zone)&lt;/li&gt;" style="text;html=1;align=left;verticalAlign=middle;whiteSpace=wrap;rounded=0;" parent="M9vnRnVPpcQp0MmXC5jN-35" vertex="1">
          <mxGeometry x="12.5" y="30" width="355" height="122.5" as="geometry" />
        </mxCell>
        <mxCell id="M9vnRnVPpcQp0MmXC5jN-37" value="price_history" style="swimlane;whiteSpace=wrap;html=1;" parent="1" vertex="1">
          <mxGeometry x="-1057.5" y="910" width="300" height="170" as="geometry" />
        </mxCell>
        <mxCell id="M9vnRnVPpcQp0MmXC5jN-38" value="&lt;li style=&quot;white-space: nowrap; line-height: 210%;&quot;&gt;&lt;code style=&quot;background-color: initial; white-space: normal;&quot;&gt;price_history_id&lt;/code&gt;&lt;span style=&quot;background-color: initial; white-space: normal;&quot;&gt; (Primary Key)&lt;/span&gt;&lt;br&gt;&lt;/li&gt;&lt;li style=&quot;line-height: 210%;&quot;&gt;&lt;code&gt;menu_item_id&lt;/code&gt; (Foreign Key to &lt;code&gt;menu_items&lt;/code&gt;)&lt;/li&gt;&lt;li style=&quot;line-height: 210%;&quot;&gt;&lt;code&gt;old_price&lt;/code&gt; (Numeric)&lt;/li&gt;&lt;li style=&quot;line-height: 210%;&quot;&gt;&lt;code&gt;new_price&lt;/code&gt; (Numeric)&lt;/li&gt;&lt;li style=&quot;line-height: 210%;&quot;&gt;&lt;code&gt;effective_date&lt;/code&gt; (Timestamp with time zone)&lt;/li&gt;" style="text;html=1;align=left;verticalAlign=middle;whiteSpace=wrap;rounded=0;" parent="M9vnRnVPpcQp0MmXC5jN-37" vertex="1">
          <mxGeometry x="14" y="20" width="286" height="150" as="geometry" />
        </mxCell>
        <mxCell id="M9vnRnVPpcQp0MmXC5jN-39" value="inventory_transactions" style="swimlane;whiteSpace=wrap;html=1;" parent="1" vertex="1">
          <mxGeometry x="-580" y="350" width="570" height="180" as="geometry" />
        </mxCell>
        <mxCell id="M9vnRnVPpcQp0MmXC5jN-40" value="&lt;li style=&quot;white-space: nowrap; line-height: 210%;&quot;&gt;&lt;code style=&quot;background-color: initial; white-space: normal;&quot;&gt;transaction_id&lt;/code&gt;&lt;span style=&quot;background-color: initial; white-space: normal;&quot;&gt; (Primary Key)&lt;/span&gt;&lt;br&gt;&lt;/li&gt;&lt;li style=&quot;line-height: 210%;&quot;&gt;&lt;code&gt;ingredient_id&lt;/code&gt; (Foreign Key to &lt;code&gt;ingredients&lt;/code&gt;)&lt;/li&gt;&lt;li style=&quot;line-height: 210%;&quot;&gt;&lt;code&gt;change_amount&lt;/code&gt; (Numeric) - The amount by which the stock changed (can be negative for usage).&lt;/li&gt;&lt;li style=&quot;line-height: 210%;&quot;&gt;&lt;code&gt;transaction_type&lt;/code&gt; (ENUM: &#39;purchase&#39;, &#39;sale&#39;, &#39;usage&#39;, &#39;adjustment&#39;)&lt;/li&gt;&lt;li style=&quot;line-height: 210%;&quot;&gt;&lt;code&gt;timestamp&lt;/code&gt; (Timestamp with time zone)&lt;/li&gt;" style="text;html=1;align=left;verticalAlign=middle;whiteSpace=wrap;rounded=0;" parent="M9vnRnVPpcQp0MmXC5jN-39" vertex="1">
          <mxGeometry x="12.5" y="30" width="557.5" height="140" as="geometry" />
        </mxCell>
        <mxCell id="M9vnRnVPpcQp0MmXC5jN-41" value="staff" style="swimlane;whiteSpace=wrap;html=1;" parent="1" vertex="1">
          <mxGeometry x="-513.75" y="20" width="440" height="200" as="geometry" />
        </mxCell>
        <mxCell id="M9vnRnVPpcQp0MmXC5jN-42" value="&lt;li style=&quot;white-space: nowrap; line-height: 210%;&quot;&gt;&lt;code style=&quot;background-color: initial; white-space: normal;&quot;&gt;staff_id&lt;/code&gt;&lt;span style=&quot;background-color: initial; white-space: normal;&quot;&gt; (Primary Key)&lt;/span&gt;&lt;br&gt;&lt;/li&gt;&lt;li style=&quot;line-height: 210%;&quot;&gt;&lt;code&gt;name&lt;/code&gt; (Text)&lt;/li&gt;&lt;li style=&quot;line-height: 210%;&quot;&gt;&lt;code&gt;role&lt;/code&gt; (ENUM: &#39;cashier&#39;, &#39;barista&#39;, &#39;manager&#39;, &#39;chef&#39;)&lt;/li&gt;&lt;li style=&quot;line-height: 210%;&quot;&gt;&lt;code&gt;email&lt;/code&gt; (Text)&lt;/li&gt;&lt;li style=&quot;line-height: 210%;&quot;&gt;&lt;code&gt;phone_number&lt;/code&gt; (Text)&lt;/li&gt;&lt;li style=&quot;line-height: 210%;&quot;&gt;&lt;code&gt;schedule&lt;/code&gt; (JSONB) - Stores weekly work schedules with dates and hours.&lt;/li&gt;" style="text;html=1;align=left;verticalAlign=middle;whiteSpace=wrap;rounded=0;" parent="M9vnRnVPpcQp0MmXC5jN-41" vertex="1">
          <mxGeometry x="12.5" y="40" width="427.5" height="140" as="geometry" />
        </mxCell>
        <mxCell id="M9vnRnVPpcQp0MmXC5jN-23" value="&lt;li style=&quot;white-space: nowrap; line-height: 210%;&quot;&gt;&lt;code&gt;order_id&lt;/code&gt;&amp;nbsp;(Primary Key)&lt;/li&gt;&lt;li style=&quot;white-space: nowrap; line-height: 210%;&quot;&gt;&lt;code&gt;customer_id&lt;/code&gt;&amp;nbsp;(Foreign Key to&amp;nbsp;&lt;code&gt;customers&lt;/code&gt;)&lt;/li&gt;&lt;li style=&quot;white-space: nowrap; line-height: 210%;&quot;&gt;&lt;code&gt;order_date&lt;/code&gt;&amp;nbsp;(Timestamp with time zone)&lt;/li&gt;&lt;li style=&quot;white-space: nowrap; line-height: 210%;&quot;&gt;&lt;code&gt;total_amount&lt;/code&gt;&amp;nbsp;(Numeric)&lt;/li&gt;&lt;li style=&quot;white-space: nowrap; line-height: 210%;&quot;&gt;&lt;code&gt;special_instructions&lt;/code&gt;&amp;nbsp;(JSONB)&lt;/li&gt;&lt;li style=&quot;white-space: nowrap; line-height: 210%;&quot;&gt;&lt;code&gt;order_status&lt;/code&gt;&amp;nbsp;(ENUM: &#39;pending&#39;, &#39;preparing&#39;, &#39;completed&#39;, &#39;cancelled&#39;)&amp;nbsp;&lt;/li&gt;&lt;li style=&quot;white-space: nowrap; line-height: 210%;&quot;&gt;&lt;code&gt;payment_method&lt;/code&gt;&amp;nbsp;(ENUM: &#39;credit_card&#39;, &#39;cash&#39;, &#39;online&#39;, &#39;gift_card&#39;)&amp;nbsp;&lt;/li&gt;" style="text;html=1;align=left;verticalAlign=middle;whiteSpace=wrap;rounded=0;" parent="1" vertex="1">
          <mxGeometry x="-1107.5" y="25" width="400" height="210" as="geometry" />
        </mxCell>
        <mxCell id="uZcT3ieoR5A4cGXe56vM-9" value="" style="edgeStyle=entityRelationEdgeStyle;fontSize=12;html=1;endArrow=ERoneToMany;startArrow=ERmandOne;rounded=0;exitX=0;exitY=0.5;exitDx=0;exitDy=0;" edge="1" parent="1" source="uZcT3ieoR5A4cGXe56vM-10" target="M9vnRnVPpcQp0MmXC5jN-26">
          <mxGeometry width="100" height="100" relative="1" as="geometry">
            <mxPoint x="-750" y="270" as="sourcePoint" />
            <mxPoint x="-830" y="300" as="targetPoint" />
            <Array as="points">
              <mxPoint x="-950" y="280" />
              <mxPoint x="-730" y="350" />
              <mxPoint x="-810" y="350" />
              <mxPoint x="-737" y="340" />
              <mxPoint x="-700" y="430" />
              <mxPoint x="-720" y="420" />
              <mxPoint x="-730" y="350" />
              <mxPoint x="-890" y="270" />
            </Array>
          </mxGeometry>
        </mxCell>
        <mxCell id="uZcT3ieoR5A4cGXe56vM-11" value="" style="edgeStyle=entityRelationEdgeStyle;fontSize=12;html=1;endArrow=ERoneToMany;startArrow=ERmandOne;rounded=0;" edge="1" parent="1" target="uZcT3ieoR5A4cGXe56vM-10">
          <mxGeometry width="100" height="100" relative="1" as="geometry">
            <mxPoint x="-705" y="190" as="sourcePoint" />
            <mxPoint x="-767" y="451" as="targetPoint" />
            <Array as="points" />
          </mxGeometry>
        </mxCell>
        <mxCell id="uZcT3ieoR5A4cGXe56vM-10" value="Contains" style="shape=rhombus;perimeter=rhombusPerimeter;whiteSpace=wrap;html=1;align=center;" vertex="1" parent="1">
          <mxGeometry x="-707.5" y="270" width="120" height="60" as="geometry" />
        </mxCell>
        <mxCell id="uZcT3ieoR5A4cGXe56vM-13" value="" style="edgeStyle=entityRelationEdgeStyle;fontSize=12;html=1;endArrow=ERoneToMany;startArrow=ERoneToMany;rounded=0;entryX=0.956;entryY=0.862;entryDx=0;entryDy=0;entryPerimeter=0;" edge="1" parent="1" source="uZcT3ieoR5A4cGXe56vM-14" target="M9vnRnVPpcQp0MmXC5jN-26">
          <mxGeometry width="100" height="100" relative="1" as="geometry">
            <mxPoint x="-738" y="687" as="sourcePoint" />
            <mxPoint x="-780" y="490" as="targetPoint" />
          </mxGeometry>
        </mxCell>
        <mxCell id="uZcT3ieoR5A4cGXe56vM-15" value="" style="edgeStyle=entityRelationEdgeStyle;fontSize=12;html=1;endArrow=ERoneToMany;startArrow=ERoneToMany;rounded=0;" edge="1" parent="1" target="uZcT3ieoR5A4cGXe56vM-14">
          <mxGeometry width="100" height="100" relative="1" as="geometry">
            <mxPoint x="-738" y="687" as="sourcePoint" />
            <mxPoint x="-780" y="510" as="targetPoint" />
          </mxGeometry>
        </mxCell>
        <mxCell id="uZcT3ieoR5A4cGXe56vM-14" value="Checked" style="shape=rhombus;perimeter=rhombusPerimeter;whiteSpace=wrap;html=1;align=center;" vertex="1" parent="1">
          <mxGeometry x="-757.5" y="560" width="120" height="60" as="geometry" />
        </mxCell>
        <mxCell id="uZcT3ieoR5A4cGXe56vM-16" value="" style="edgeStyle=entityRelationEdgeStyle;fontSize=12;html=1;endArrow=ERoneToMany;startArrow=ERmandOne;rounded=0;entryX=0.968;entryY=1.012;entryDx=0;entryDy=0;entryPerimeter=0;" edge="1" parent="1" source="uZcT3ieoR5A4cGXe56vM-17" target="M9vnRnVPpcQp0MmXC5jN-28">
          <mxGeometry width="100" height="100" relative="1" as="geometry">
            <mxPoint x="-730" y="880" as="sourcePoint" />
            <mxPoint x="-1090" y="790" as="targetPoint" />
            <Array as="points">
              <mxPoint x="-670" y="880" />
              <mxPoint x="-920" y="880" />
            </Array>
          </mxGeometry>
        </mxCell>
        <mxCell id="uZcT3ieoR5A4cGXe56vM-18" value="" style="edgeStyle=entityRelationEdgeStyle;fontSize=12;html=1;endArrow=ERoneToMany;startArrow=ERmandOne;rounded=0;" edge="1" parent="1" target="uZcT3ieoR5A4cGXe56vM-17">
          <mxGeometry width="100" height="100" relative="1" as="geometry">
            <mxPoint x="-757.5000000000002" y="1015.0000000000002" as="sourcePoint" />
            <mxPoint x="-580" y="910" as="targetPoint" />
            <Array as="points">
              <mxPoint x="-760" y="680" />
            </Array>
          </mxGeometry>
        </mxCell>
        <mxCell id="uZcT3ieoR5A4cGXe56vM-17" value="Costs" style="shape=rhombus;perimeter=rhombusPerimeter;whiteSpace=wrap;html=1;align=center;" vertex="1" parent="1">
          <mxGeometry x="-680" y="850" width="120" height="60" as="geometry" />
        </mxCell>
        <mxCell id="uZcT3ieoR5A4cGXe56vM-22" value="" style="edgeStyle=entityRelationEdgeStyle;fontSize=12;html=1;endArrow=ERzeroToMany;startArrow=ERmandOne;rounded=0;exitX=0;exitY=0.5;exitDx=0;exitDy=0;" edge="1" parent="1" source="M9vnRnVPpcQp0MmXC5jN-28" target="M9vnRnVPpcQp0MmXC5jN-30">
          <mxGeometry width="100" height="100" relative="1" as="geometry">
            <mxPoint x="-1130" y="720" as="sourcePoint" />
            <mxPoint x="-1020" y="500" as="targetPoint" />
          </mxGeometry>
        </mxCell>
        <mxCell id="uZcT3ieoR5A4cGXe56vM-23" value="" style="edgeStyle=entityRelationEdgeStyle;fontSize=12;html=1;endArrow=ERzeroToMany;startArrow=ERmandOne;rounded=0;" edge="1" parent="1" source="uZcT3ieoR5A4cGXe56vM-39">
          <mxGeometry width="100" height="100" relative="1" as="geometry">
            <mxPoint x="-720" y="600" as="sourcePoint" />
            <mxPoint x="-450" y="740" as="targetPoint" />
          </mxGeometry>
        </mxCell>
        <mxCell id="uZcT3ieoR5A4cGXe56vM-25" value="" style="edgeStyle=entityRelationEdgeStyle;fontSize=12;html=1;endArrow=ERzeroToMany;endFill=1;startArrow=ERzeroToMany;rounded=0;" edge="1" parent="1">
          <mxGeometry width="100" height="100" relative="1" as="geometry">
            <mxPoint x="-1214" y="725.63" as="sourcePoint" />
            <mxPoint x="-1560" y="454.38" as="targetPoint" />
          </mxGeometry>
        </mxCell>
        <mxCell id="uZcT3ieoR5A4cGXe56vM-26" value="" style="edgeStyle=entityRelationEdgeStyle;fontSize=12;html=1;endArrow=ERoneToMany;startArrow=ERmandOne;rounded=0;exitX=0.5;exitY=1;exitDx=0;exitDy=0;" edge="1" parent="1" source="uZcT3ieoR5A4cGXe56vM-27" target="M9vnRnVPpcQp0MmXC5jN-23">
          <mxGeometry width="100" height="100" relative="1" as="geometry">
            <mxPoint x="-1170" y="250" as="sourcePoint" />
            <mxPoint x="-1120" y="150" as="targetPoint" />
          </mxGeometry>
        </mxCell>
        <mxCell id="uZcT3ieoR5A4cGXe56vM-28" value="" style="edgeStyle=entityRelationEdgeStyle;fontSize=12;html=1;endArrow=ERoneToMany;startArrow=ERmandOne;rounded=0;entryX=0.5;entryY=0;entryDx=0;entryDy=0;" edge="1" parent="1" source="M9vnRnVPpcQp0MmXC5jN-36" target="uZcT3ieoR5A4cGXe56vM-27">
          <mxGeometry width="100" height="100" relative="1" as="geometry">
            <mxPoint x="-1232" y="136" as="sourcePoint" />
            <mxPoint x="-1150" y="70" as="targetPoint" />
            <Array as="points">
              <mxPoint x="-1180" y="90" />
            </Array>
          </mxGeometry>
        </mxCell>
        <mxCell id="uZcT3ieoR5A4cGXe56vM-27" value="&lt;font style=&quot;font-size: 10px;&quot;&gt;tracks&lt;/font&gt;" style="shape=rhombus;perimeter=rhombusPerimeter;whiteSpace=wrap;html=1;align=center;" vertex="1" parent="1">
          <mxGeometry x="-1200" y="130" width="60" height="30" as="geometry" />
        </mxCell>
        <mxCell id="uZcT3ieoR5A4cGXe56vM-29" value="" style="edgeStyle=entityRelationEdgeStyle;fontSize=12;html=1;endArrow=ERzeroToMany;endFill=1;startArrow=ERzeroToMany;rounded=0;" edge="1" parent="1" source="uZcT3ieoR5A4cGXe56vM-36" target="M9vnRnVPpcQp0MmXC5jN-40">
          <mxGeometry width="100" height="100" relative="1" as="geometry">
            <mxPoint x="-500" y="600" as="sourcePoint" />
            <mxPoint x="-400" y="500" as="targetPoint" />
          </mxGeometry>
        </mxCell>
        <mxCell id="uZcT3ieoR5A4cGXe56vM-30" value="" style="edgeStyle=entityRelationEdgeStyle;fontSize=12;html=1;endArrow=ERzeroToMany;startArrow=ERmandOne;rounded=0;" edge="1" parent="1" source="uZcT3ieoR5A4cGXe56vM-34" target="M9vnRnVPpcQp0MmXC5jN-39">
          <mxGeometry width="100" height="100" relative="1" as="geometry">
            <mxPoint x="-420" y="330" as="sourcePoint" />
            <mxPoint x="-320" y="230" as="targetPoint" />
          </mxGeometry>
        </mxCell>
        <mxCell id="uZcT3ieoR5A4cGXe56vM-31" value="" style="edgeStyle=entityRelationEdgeStyle;fontSize=12;html=1;endArrow=ERzeroToMany;startArrow=ERmandOne;rounded=0;" edge="1" parent="1" source="uZcT3ieoR5A4cGXe56vM-32" target="M9vnRnVPpcQp0MmXC5jN-23">
          <mxGeometry width="100" height="100" relative="1" as="geometry">
            <mxPoint x="-550" y="140" as="sourcePoint" />
            <mxPoint x="-610" y="50" as="targetPoint" />
          </mxGeometry>
        </mxCell>
        <mxCell id="uZcT3ieoR5A4cGXe56vM-33" value="" style="edgeStyle=entityRelationEdgeStyle;fontSize=12;html=1;endArrow=ERzeroToMany;startArrow=ERmandOne;rounded=0;" edge="1" parent="1" source="M9vnRnVPpcQp0MmXC5jN-42" target="uZcT3ieoR5A4cGXe56vM-32">
          <mxGeometry width="100" height="100" relative="1" as="geometry">
            <mxPoint x="-501" y="130" as="sourcePoint" />
            <mxPoint x="-707" y="130" as="targetPoint" />
          </mxGeometry>
        </mxCell>
        <mxCell id="uZcT3ieoR5A4cGXe56vM-32" value="Taken" style="shape=rhombus;perimeter=rhombusPerimeter;whiteSpace=wrap;html=1;align=center;" vertex="1" parent="1">
          <mxGeometry x="-650" y="105" width="100" height="50" as="geometry" />
        </mxCell>
        <mxCell id="uZcT3ieoR5A4cGXe56vM-35" value="" style="edgeStyle=entityRelationEdgeStyle;fontSize=12;html=1;endArrow=ERzeroToMany;startArrow=ERmandOne;rounded=0;" edge="1" parent="1" source="M9vnRnVPpcQp0MmXC5jN-42" target="uZcT3ieoR5A4cGXe56vM-34">
          <mxGeometry width="100" height="100" relative="1" as="geometry">
            <mxPoint x="-74" y="130" as="sourcePoint" />
            <mxPoint x="-10" y="440" as="targetPoint" />
          </mxGeometry>
        </mxCell>
        <mxCell id="uZcT3ieoR5A4cGXe56vM-34" value="Places" style="shape=rhombus;perimeter=rhombusPerimeter;whiteSpace=wrap;html=1;align=center;" vertex="1" parent="1">
          <mxGeometry x="-10" y="250" width="120" height="60" as="geometry" />
        </mxCell>
        <mxCell id="uZcT3ieoR5A4cGXe56vM-37" value="" style="edgeStyle=entityRelationEdgeStyle;fontSize=12;html=1;endArrow=ERzeroToMany;endFill=1;startArrow=ERzeroToMany;rounded=0;" edge="1" parent="1" source="M9vnRnVPpcQp0MmXC5jN-33" target="uZcT3ieoR5A4cGXe56vM-36">
          <mxGeometry width="100" height="100" relative="1" as="geometry">
            <mxPoint x="-140" y="735" as="sourcePoint" />
            <mxPoint x="-10" y="450" as="targetPoint" />
          </mxGeometry>
        </mxCell>
        <mxCell id="uZcT3ieoR5A4cGXe56vM-36" value="Checked" style="shape=rhombus;perimeter=rhombusPerimeter;whiteSpace=wrap;html=1;align=center;" vertex="1" parent="1">
          <mxGeometry x="-40" y="580" width="120" height="60" as="geometry" />
        </mxCell>
        <mxCell id="uZcT3ieoR5A4cGXe56vM-40" value="" style="edgeStyle=entityRelationEdgeStyle;fontSize=12;html=1;endArrow=ERzeroToMany;startArrow=ERmandOne;rounded=0;" edge="1" parent="1" source="M9vnRnVPpcQp0MmXC5jN-28" target="uZcT3ieoR5A4cGXe56vM-39">
          <mxGeometry width="100" height="100" relative="1" as="geometry">
            <mxPoint x="-736" y="740" as="sourcePoint" />
            <mxPoint x="-450" y="740" as="targetPoint" />
          </mxGeometry>
        </mxCell>
        <mxCell id="uZcT3ieoR5A4cGXe56vM-39" value="Checked" style="shape=rhombus;perimeter=rhombusPerimeter;whiteSpace=wrap;html=1;align=center;" vertex="1" parent="1">
          <mxGeometry x="-650" y="710" width="120" height="60" as="geometry" />
        </mxCell>
        <mxCell id="uZcT3ieoR5A4cGXe56vM-42" value="Consists" style="shape=rhombus;perimeter=rhombusPerimeter;whiteSpace=wrap;html=1;align=center;" vertex="1" parent="1">
          <mxGeometry x="-1230" y="530" width="120" height="60" as="geometry" />
        </mxCell>
        <mxCell id="uZcT3ieoR5A4cGXe56vM-43" value="Amount" style="shape=rhombus;perimeter=rhombusPerimeter;whiteSpace=wrap;html=1;align=center;" vertex="1" parent="1">
          <mxGeometry x="-1470" y="560" width="120" height="60" as="geometry" />
        </mxCell>
      </root>
    </mxGraphModel>
  </diagram>
</mxfile>
